name ./resultDataOpenSim/trcMotMarkerGrf/sub10/grf-02-07.mot
datacolumns 19
datarows 22
range 1.54000000 1.62400000
endheader

                time	     ground_force_vx	     ground_force_vy	     ground_force_vz	     ground_force_px	     ground_force_py	     ground_force_pz	   l_ground_force_vx	   l_ground_force_vy	   l_ground_force_vz	   l_ground_force_px	   l_ground_force_py	   l_ground_force_pz	     ground_torque_x	     ground_torque_y	     ground_torque_z	   l_ground_torque_x	   l_ground_torque_y	   l_ground_torque_z	
          1.54000000	         13.93863271	        454.92583816	        -23.24481499	          0.73034184	          0.00000000	          0.05857625	          0.00000000	          0.00000000	          0.00000000	          0.00000000	          0.00000000	          0.00000000	          0.00000000	          3.21544269	          0.00000000	          0.00000000	          0.00000000	          0.00000000	
          1.54400000	         15.53598968	        458.53565336	        -24.30554298	          0.73107958	          0.00000000	          0.05867947	          0.00000000	          0.00000000	          0.00000000	          0.00000000	          0.00000000	          0.00000000	          0.00000000	          3.29472073	          0.00000000	          0.00000000	          0.00000000	          0.00000000	
          1.54800000	         16.32951375	        462.75581523	        -24.97096569	          0.73202771	          0.00000000	          0.05872253	          0.00000000	          0.00000000	          0.00000000	          0.00000000	          0.00000000	          0.00000000	          0.00000000	          3.33591869	          0.00000000	          0.00000000	          0.00000000	          0.00000000	
          1.55200000	         16.61524304	        467.53142502	        -25.33100594	          0.73316166	          0.00000000	          0.05871693	          0.00000000	          0.00000000	          0.00000000	          0.00000000	          0.00000000	          0.00000000	          0.00000000	          3.34813771	          0.00000000	          0.00000000	          0.00000000	          0.00000000	
          1.55600000	         16.80217632	        472.80161624	        -25.53528249	          0.73443481	          0.00000000	          0.05868212	          0.00000000	          0.00000000	          0.00000000	          0.00000000	          0.00000000	          0.00000000	          0.00000000	          3.34513402	          0.00000000	          0.00000000	          0.00000000	          0.00000000	
          1.56000000	         17.29782174	        478.53751937	        -25.76160122	          0.73578723	          0.00000000	          0.05863583	          0.00000000	          0.00000000	          0.00000000	          0.00000000	          0.00000000	          0.00000000	          0.00000000	          3.34378851	          0.00000000	          0.00000000	          0.00000000	          0.00000000	
          1.56400000	         18.39152006	        484.75322393	        -26.18127636	          0.73716199	          0.00000000	          0.05859074	          0.00000000	          0.00000000	          0.00000000	          0.00000000	          0.00000000	          0.00000000	          0.00000000	          3.36181887	          0.00000000	          0.00000000	          0.00000000	          0.00000000	
          1.56800000	         20.17432350	        491.49659489	        -26.92935717	          0.73853471	          0.00000000	          0.05855422	          0.00000000	          0.00000000	          0.00000000	          0.00000000	          0.00000000	          0.00000000	          0.00000000	          3.41487298	          0.00000000	          0.00000000	          0.00000000	          0.00000000	
          1.57200000	         22.52389535	        498.83201134	        -28.08226531	          0.73991787	          0.00000000	          0.05852737	          0.00000000	          0.00000000	          0.00000000	          0.00000000	          0.00000000	          0.00000000	          0.00000000	          3.51351525	          0.00000000	          0.00000000	          0.00000000	          0.00000000	
          1.57600000	         25.15410068	        506.81796305	        -29.64237771	          0.74134528	          0.00000000	          0.05850353	          0.00000000	          0.00000000	          0.00000000	          0.00000000	          0.00000000	          0.00000000	          0.00000000	          3.66082780	          0.00000000	          0.00000000	          0.00000000	          0.00000000	
          1.58000000	         27.70642259	        515.48293553	        -31.53319060	          0.74286783	          0.00000000	          0.05847175	          0.00000000	          0.00000000	          0.00000000	          0.00000000	          0.00000000	          0.00000000	          0.00000000	          3.85127921	          0.00000000	          0.00000000	          0.00000000	          0.00000000	
          1.58400000	         29.85416538	        524.81344677	        -33.61091442	          0.74451395	          0.00000000	          0.05842418	          0.00000000	          0.00000000	          0.00000000	          0.00000000	          0.00000000	          0.00000000	          0.00000000	          4.07120729	          0.00000000	          0.00000000	          0.00000000	          0.00000000	
          1.58800000	         31.39339162	        534.76075062	        -35.69170867	          0.74628491	          0.00000000	          0.05835274	          0.00000000	          0.00000000	          0.00000000	          0.00000000	          0.00000000	          0.00000000	          0.00000000	          4.30088630	          0.00000000	          0.00000000	          0.00000000	          0.00000000	
          1.59200000	         32.29608727	        545.24902755	        -37.58823579	          0.74817567	          0.00000000	          0.05825094	          0.00000000	          0.00000000	          0.00000000	          0.00000000	          0.00000000	          0.00000000	          0.00000000	          4.51785670	          0.00000000	          0.00000000	          0.00000000	          0.00000000	
          1.59600000	         32.71145091	        556.17232941	        -39.14869886	          0.75015931	          0.00000000	          0.05812174	          0.00000000	          0.00000000	          0.00000000	          0.00000000	          0.00000000	          0.00000000	          0.00000000	          4.70100918	          0.00000000	          0.00000000	          0.00000000	          0.00000000	
          1.60000000	         32.92064784	        567.39469674	        -40.28864503	          0.75219148	          0.00000000	          0.05797582	          0.00000000	          0.00000000	          0.00000000	          0.00000000	          0.00000000	          0.00000000	          0.00000000	          4.83476141	          0.00000000	          0.00000000	          0.00000000	          0.00000000	
          1.60400000	         33.25963947	        578.77078129	        -41.00812181	          0.75424002	          0.00000000	          0.05781975	          0.00000000	          0.00000000	          0.00000000	          0.00000000	          0.00000000	          0.00000000	          0.00000000	          4.91248983	          0.00000000	          0.00000000	          0.00000000	          0.00000000	
          1.60800000	         34.02762100	        590.17737836	        -41.39268783	          0.75628050	          0.00000000	          0.05765622	          0.00000000	          0.00000000	          0.00000000	          0.00000000	          0.00000000	          0.00000000	          0.00000000	          4.93828985	          0.00000000	          0.00000000	          0.00000000	          0.00000000	
          1.61200000	         35.40646867	        601.52551434	        -41.59751955	          0.75831035	          0.00000000	          0.05748583	          0.00000000	          0.00000000	          0.00000000	          0.00000000	          0.00000000	          0.00000000	          0.00000000	          4.92638650	          0.00000000	          0.00000000	          0.00000000	          0.00000000	
          1.61600000	         37.41706236	        612.74545772	        -41.81648742	          0.76034054	          0.00000000	          0.05730493	          0.00000000	          0.00000000	          0.00000000	          0.00000000	          0.00000000	          0.00000000	          0.00000000	          4.89813341	          0.00000000	          0.00000000	          0.00000000	          0.00000000	
          1.62000000	         39.92277883	        623.77295429	        -42.24210498	          0.76238330	          0.00000000	          0.05710677	          0.00000000	          0.00000000	          0.00000000	          0.00000000	          0.00000000	          0.00000000	          0.00000000	          4.87723656	          0.00000000	          0.00000000	          0.00000000	          0.00000000	
          1.62400000	         42.67445583	        634.55328797	        -43.02412328	          0.76445652	          0.00000000	          0.05689069	          0.00000000	          0.00000000	          0.00000000	          0.00000000	          0.00000000	          0.00000000	          0.00000000	          4.88434833	          0.00000000	          0.00000000	          0.00000000	          0.00000000	
